# xmcd
#
# Track frame offsets:
#	182
#	11142
#	24070
#	35215
#	47767
#	59510
#	73722
#	86392
#	99560
#	112677
#	124195
#	136400
#	147270
#	161597
#	172472
#	183847
#	197912
#	208142
#
# Disc length: 2938 seconds
#
# Revision: 1
# Processed by: cddbd v1.5.2PL0 Copyright (c) Steve Scherf et al.
# Submitted via: audiograbber 1.83.01
#
DISCID=060b7812
DTITLE=Various Artist - IRMA Records
DYEAR=1900
DGENRE=
TTITLE0=Juke Boy Bonner - Well Baby
TTITLE1=Juke Boy Bonner - Rock Wtih Me Baby
TTITLE2=Jimmy McCracklin - I Wanna Make Love To You
TTITLE3=Jimmy McCracklin - You're The One
TTITLE4=Jimmy McCracklin - Fare - Well
TTITLE5=Jimmy McCracklin - Savory Jump
TTITLE6=Jimmy McCracklin - I'm The One
TTITLE7=Jimmy McCracklin - Take  A Chance
TTITLE8=Jimmy McCracklin - Beer Tavern
TTITLE9=Jimmy McCracklin - Love For You
TTITLE10=Big Mama Thorton - Don't Talk Back
TTITLE11=Big Mama Thorton - Big Mama's Coming
TTITLE12=Johnn Fuller - Strange Land
TTITLE13=Johnn Fuller - First Stage Of The Blues
TTITLE14=Johnn Fuller - No More
TTITLE15=Johnn Fuller - Weeping And Morning
TTITLE16=Jimmy Wilson and The Blues Baster - Oh Red
TTITLE17=Johnn Fuller - Blues In The Alley
EXTD=
EXTT0=
EXTT1=
EXTT2=
EXTT3=
EXTT4=
EXTT5=
EXTT6=
EXTT7=
EXTT8=
EXTT9=
EXTT10=
EXTT11=
EXTT12=
EXTT13=
EXTT14=
EXTT15=
EXTT16=
EXTT17=
PLAYORDER=
